# xmcd CD database file
#
# Track frame offsets:
#	183
#	16803
#	30568
#	44590
#	57533
#	72670
#	85113
#	98423
#	114395
#	128835
#	142970
#	155348
#	168633
#	180965
#	194943
#	208918
#	224680
#	239840
#	255790
#	270523
#	284823
#	302675
#
# Disc length: 4220 seconds
#
# Revision: 0
# Processed by: cddbd v1.5.1PL0 Copyright (c) Steve Scherf et al.
# Submitted via: CDex 1.50Beta7
#
DISCID=4c107a16
DTITLE=Sidney Bechet and Claude Luther - Blues in the cave - Album N°2
DYEAR=1990
DGENRE=Blues
TTITLE0=Kansas city man blues
TTITLE1=Together
TTITLE2=Apex blues
TTITLE3=Sleepy time gal
TTITLE4=Of all the wrongs you've done to me
TTITLE5=Darling Nelly Gray
TTITLE6=Put on your old grey bonnet
TTITLE7=Sidney wedding day
TTITLE8=Ghost of the blues
TTITLE9=Wabash blues
TTITLE10=Patte de mouche
TTITLE11=That old black magic
TTITLE12=Because of you
TTITLE13=Because of you
TTITLE14=I get a kick out of you
TTITLE15=Blues
TTITLE16=(It's no) Sin
TTITLE17=You're lucky to me
TTITLE18=12th street rag
TTITLE19=Ol' man river
TTITLE20=Show boat medley
TTITLE21=You rascal you
EXTD=YEAR: 1990
EXTT0=
EXTT1=
EXTT2=
EXTT3=
EXTT4=
EXTT5=
EXTT6=
EXTT7=
EXTT8=
EXTT9=
EXTT10=
EXTT11=
EXTT12=
EXTT13=
EXTT14=
EXTT15=
EXTT16=
EXTT17=
EXTT18=
EXTT19=
EXTT20=
EXTT21=
PLAYORDER=
